{"title":"Star Wars 7: The force Awakens 2015 - VHQ1080p Blu-ray x264 DDR","uid":15511813,"size":31524594385,"categoryP":"video","categoryS":"hd___movies","magnet":"?xt=urn:btih:483e404d1d794f5066443e39a63477339e7106ff&amp;dn=Star+Wars+7%3A+The+force+Awakens+2015+-+VHQ1080p+Blu-ray+x264+DDR&amp;tr=udp%3A%2F%2Ftracker.leechers-paradise.org%3A6969&amp;tr=udp%3A%2F%2Fzer0day.ch%3A1337&amp;tr=udp%3A%2F%2Fopen.demonii.com%3A1337&amp;tr=udp%3A%2F%2Ftracker.coppersurfer.tk%3A6969&amp;tr=udp%3A%2F%2Fexodus.desync.com%3A6969","seeders":8,"leechers":10,"uploader":"SaM","files":4,"time":1470663975,"description":"VHQ 1080p Blu-ray Rip x264\r\n\r\nDual Real DTS HD Master Audio 7.1 for both Hindi &amp; English and for French DTS 5.1\r\n\r\n[B]Exclusive DTS-HDMA 7.1 Hindi Audio.\r\n\r\n\r\n\r\nArabic, English, French, Hindi and Hindi Forced Subtitles\r\n\r\n\r\n\r\n \nhttp://extraimago.com/image/wTes \nhttp://extraimago.com/image/wTe7 \nhttp://extraimago.com/image/wTec \nhttp://extraimago.com/image/wTe1 \nhttp://extraimago.com/image/wTeE \nhttp://extraimago.com/image/wTeO \nhttp://extraimago.com/image/wTeS \nhttp://extraimago.com/image/wTeq \nhttp://extraimago.com/image/wTey \nhttp://extraimago.com/image/wTeL \nhttp://extraimago.com/image/wTeQ \nhttp://extraimago.com/image/wTeR \nhttp://extraimago.com/image/wTem \nhttp://extraimago.com/image/wTei \nhttp://extraimago.com/image/wTel\r\n\r\n\r\nSpecs:\r\nSource: FRENCH BD50 @ DDR\r\n\r\nFormat : Matroska\r\nFile size : 28.9 GiB\r\nDuration : 2h 18mn\r\nOverall bit rate : 29.9 Mbps\r\nEncoded date : UTC 2016-08-03 17:20:19\r\n\r\nVideo\r\nFormat : AVC\r\nFormat/Info : Advanced Video Codec\r\nFormat profile :   \r\nFormat settings, CABAC : Yes\r\nFormat settings, ReFrames : 5 frames\r\nCodec ID : V_MPEG4/ISO/AVC\r\nDuration : 2h 18mn\r\nBit rate : 18.1 Mbps\r\nWidth : 1 920 pixels\r\nHeight : 800 pixels\r\nDisplay aspect ratio : 2.40:1\r\nFrame rate mode : Constant\r\nFrame rate : 23.976 (24000/1001) fps\r\ncolor space : YUV\r\nChroma subsampling : 4:2:0\r\nBit depth : 8 bits\r\nScan type : Progressive\r\nBits/(Pixel*Frame) : 0.491\r\nStream size : 17.4 GiB (60%)\r\ncolor primaries : BT.709\r\nTransfer characteristics : BT.709\r\nMatrix coefficients : BT.709\r\n\r\nAudio #1\r\nFormat : DTS\r\nFormat/Info : Digital Theater Systems\r\nFormat profile : MA / Core\r\nMode : 16\r\nFormat settings, Endianness : Big\r\nCodec ID : A_DTS\r\nDuration : 2h 18mn\r\nBit rate mode : Variable / Constant\r\nBit rate : 5 137 Kbps / 1 509 Kbps\r\nChannel(s) : 8 channels / 6 channels\r\nChannel positions : Front: L C R, Side: L R, Back: L R, LFE / Front: L C R, Side: L R, LFE\r\nSampling rate : 48.0 KHz\r\nFrame rate : 93.750 fps (512 spf)\r\nBit depth : 24 bits\r\nCompression mode : Lossless / Lossy\r\nStream size : 5.01 GiB (17%)\r\nLanguage : Hindi\r\nDefault : Yes\r\nForced : No\r\n\r\n\r\nAudio #2\r\nFormat : DTS\r\nFormat/Info : Digital Theater Systems\r\nFormat profile : MA / Core\r\nMode : 16\r\nFormat settings, Endianness : Big\r\nCodec ID : A_DTS\r\nDuration : 2h 18mn\r\nBit rate mode : Variable / Constant\r\nBit rate : 5 194 Kbps / 1 509 Kbps\r\nChannel(s) : 8 channels / 6 channels\r\nChannel positions : Front: L C R, Side: L R, Back: L R, LFE / Front: L C R, Side: L R, LFE\r\nSampling rate : 48.0 KHz\r\nFrame rate : 93.750 fps (512 spf)\r\nBit depth : 24 bits\r\nCompression mode : Lossless / Lossy\r\nStream size : 4.96 GiB (17%)\r\nLanguage : English\r\nDefault : No\r\nForced : No\r\n\r\n\r\nAudio #3\r\nFormat : DTS\r\nFormat/Info : Digital Theater Systems\r\nMode : 16\r\nFormat settings, Endianness : Big\r\nCodec ID : A_DTS\r\nDuration : 2h 18mn\r\nBit rate mode : Constant\r\nBit rate : 1 509 Kbps\r\nChannel(s) : 6 channels\r\nChannel positions : Front: L C R, Side: L R, LFE\r\nSampling rate : 48.0 KHz\r\nFrame rate : 93.750 fps (512 spf)\r\nBit depth : 24 bits\r\nCompression mode : Lossy\r\nStream size : 1.46 GiB (5%)\r\nLanguage : French\r\nDefault : No\r\nForced : No\r\nChapters : YES\r\n\r\nSAMPLE Included","torrent":{"xt":"urn:btih:483e404d1d794f5066443e39a63477339e7106ff","amp;dn":"Star+Wars+7%3A+The+force+Awakens+2015+-+VHQ1080p+Blu-ray+x264+DDR","amp;tr":["udp%3A%2F%2Ftracker.leechers-paradise.org%3A6969","udp%3A%2F%2Fzer0day.ch%3A1337","udp%3A%2F%2Fopen.demonii.com%3A1337","udp%3A%2F%2Ftracker.coppersurfer.tk%3A6969","udp%3A%2F%2Fexodus.desync.com%3A6969"],"infoHash":"483e404d1d794f5066443e39a63477339e7106ff","infoHashBuffer":{"type":"Buffer","data":[72,62,64,77,29,121,79,80,102,68,62,57,166,52,119,51,158,113,6,255]},"announce":[],"urlList":[]}}